# xmcd CD database file
#
# Track frame offsets:
#	150
#	28066
#	50062
#	70539
#	85859
#	104070
#	130829
#	153088
#	164938
#
# Disc length: 2432 seconds
#
# Revision: 0
# Processed by: cddbd v1.5.2PL0 Copyright (c) Steve Scherf et al.
# Submitted via: CDex 1.51
#
DISCID=79097e09
DTITLE=Alphonse Mouzon - In Search For A Dream
DYEAR=1900
DGENRE=Jazz
TTITLE0=Nightmare
TTITLE1=Electric Moon
TTITLE2=Shoreline
TTITLE3=The Light
TTITLE4=The Unknow Journey
TTITLE5=The Ram And The Scorpio
TTITLE6=In Search Of A Dream
TTITLE7=Playing Between The Beat
TTITLE8=Nothing But A Party
EXTD=
EXTT0=
EXTT1=
EXTT2=
EXTT3=
EXTT4=
EXTT5=
EXTT6=
EXTT7=
EXTT8=
PLAYORDER=
